<?xml version="1.0" standalone="no"?>
<!DOCTYPE svg PUBLIC "-//W3C//DTD SVG 20010904//EN"
 "http://www.w3.org/TR/2001/REC-SVG-20010904/DTD/svg10.dtd">
<svg version="1.0" xmlns="http://www.w3.org/2000/svg"
 width="432.000000pt" height="176.000000pt" viewBox="0 0 432.000000 176.000000"
 preserveAspectRatio="xMidYMid meet">
<metadata>
Created by potrace 1.16, written by Peter Selinger 2001-2019
</metadata>
<g transform="translate(0.000000,176.000000) scale(0.100000,-0.100000)"
fill="#000000" stroke="none">
<path d="M2315 1084 c-82 -57 -162 -116 -177 -130 -26 -24 -27 -27 -13 -47 21
-30 19 -40 -5 -27 -12 6 -30 8 -40 5 -22 -7 -28 13 -10 31 8 8 7 14 -2 21 -16
14 -208 94 -208 87 0 -2 18 -24 41 -49 27 -30 53 -47 75 -51 34 -6 57 -24 32
-24 -7 -1 -2 -10 12 -21 17 -15 33 -19 53 -15 24 5 27 3 22 -13 -4 -13 2 -24
21 -36 26 -17 27 -16 60 16 39 37 41 46 17 52 -10 3 5 5 33 6 46 1 54 4 78 35
33 44 33 49 -6 42 -24 -4 -14 4 34 26 65 30 69 34 108 109 42 80 45 89 33 88
-5 0 -75 -47 -158 -105z"/>
<path d="M623 685 c-13 -9 -23 -21 -23 -27 0 -6 7 -5 18 4 23 21 54 29 70 19
11 -7 0 -42 -52 -166 -37 -87 -64 -160 -62 -163 3 -3 17 22 32 56 26 59 26 60
62 55 46 -5 90 21 132 78 84 117 40 213 -58 125 l-37 -34 0 32 c0 27 -4 31
-30 34 -16 1 -40 -4 -52 -13z m201 -43 c-2 -88 -119 -198 -173 -163 -33 21
115 217 157 209 13 -3 17 -14 16 -46z"/>
<path d="M912 675 c-11 -14 -35 -60 -52 -103 -18 -42 -40 -88 -50 -102 -20
-29 -16 -106 6 -114 7 -3 26 5 41 18 l27 24 11 -22 c14 -28 42 -32 67 -10 18
18 20 18 29 1 18 -32 47 -18 115 58 37 41 71 75 76 75 14 0 9 -36 -13 -85 -27
-61 -19 -67 16 -13 39 61 76 98 97 98 23 0 22 -1 -3 -60 -40 -94 -9 -115 61
-42 l48 50 -5 -38 c-4 -31 -2 -40 16 -49 18 -10 27 -6 73 36 29 27 46 39 40
26 -17 -31 -15 -73 3 -73 8 0 32 19 55 42 l40 42 0 -36 c0 -53 23 -55 75 -7
l45 42 0 -36 c0 -44 20 -53 55 -25 l26 21 15 -22 c18 -26 41 -27 67 -4 18 17
19 17 28 0 12 -20 40 -22 57 -5 10 10 17 10 32 0 27 -16 75 -15 110 3 30 15
74 65 65 73 -2 3 -14 -7 -26 -22 -11 -14 -30 -31 -41 -37 -20 -11 -20 -9 -16
66 l3 77 -70 -76 c-66 -73 -87 -87 -99 -68 -3 5 8 37 24 71 17 35 30 65 30 67
0 2 -12 4 -27 4 -43 0 -82 -25 -141 -90 -55 -61 -82 -75 -82 -41 0 37 25 88
82 166 62 84 77 120 60 137 -19 19 -48 -18 -89 -114 -28 -68 -52 -106 -95
-152 -45 -48 -59 -58 -69 -49 -21 20 5 84 71 175 65 89 79 123 61 141 -18 18
-48 -20 -90 -117 -38 -89 -122 -206 -149 -206 -15 0 -11 19 19 89 10 24 19 46
19 50 0 3 -31 -27 -68 -68 -52 -57 -73 -73 -86 -68 -19 8 -16 42 10 105 11 26
19 32 46 33 32 2 32 2 5 6 -24 4 -28 8 -22 26 18 59 14 69 -10 25 -15 -29 -32
-48 -43 -48 -14 0 -14 -2 -3 -9 11 -7 10 -15 -9 -42 -57 -83 -121 -130 -104
-76 3 12 13 34 20 49 36 70 -8 97 -67 42 l-26 -25 1 23 c2 48 -34 32 -106 -46
-39 -42 -75 -76 -79 -76 -17 0 -9 51 16 100 28 55 22 65 -31 55 -26 -4 -53
-25 -104 -78 -54 -56 -72 -69 -81 -60 -20 20 5 84 68 170 65 91 78 116 70 137
-9 23 -23 20 -45 -9z"/>
<path d="M3477 668 c-13 -18 -37 -65 -53 -105 -35 -86 -145 -216 -166 -195 -9
9 -7 24 11 64 37 85 37 88 7 88 -43 0 -83 -26 -126 -84 -57 -76 -98 -89 -71
-23 17 39 20 99 5 104 -6 2 -27 -7 -46 -21 -34 -23 -36 -23 -41 -5 -9 34 -35
21 -108 -56 -40 -41 -76 -72 -80 -69 -16 9 -10 43 16 94 14 27 25 52 25 55 0
11 -52 5 -79 -10 -16 -8 -52 -41 -81 -75 -28 -33 -58 -60 -66 -60 -18 0 -18
-2 7 64 25 64 20 91 -13 81 -13 -4 -34 -18 -49 -31 -30 -29 -39 -30 -32 -6 2
10 -3 24 -12 32 -13 11 -20 10 -44 -8 -24 -18 -30 -19 -35 -7 -9 25 -40 17
-76 -20 -18 -19 -31 -37 -29 -40 3 -2 21 11 39 30 19 19 38 35 42 35 15 0 8
-34 -17 -87 -28 -62 -19 -71 14 -13 31 55 70 100 87 100 19 0 18 -50 -1 -97
-23 -55 -17 -63 11 -13 33 59 83 110 107 110 11 0 17 -5 14 -12 -35 -93 -41
-118 -29 -130 9 -9 18 -7 40 9 28 20 29 21 40 2 15 -23 40 -24 71 -3 22 16 24
16 33 0 16 -28 33 -18 107 60 39 41 75 73 80 69 11 -6 1 -47 -23 -94 -10 -18
-15 -38 -13 -44 2 -7 13 7 25 29 27 52 84 114 106 114 21 0 20 -7 -6 -75 -27
-70 -16 -88 35 -57 34 20 35 20 40 1 6 -23 35 -25 66 -3 22 16 24 16 33 0 15
-27 39 -18 85 30 l43 47 0 -35 c0 -20 7 -41 15 -48 20 -16 62 -5 75 20 6 11
21 20 33 20 12 0 32 7 43 15 20 14 21 13 20 -23 -1 -48 22 -53 62 -12 l31 30
3 -27 c2 -14 8 -28 15 -30 13 -5 93 64 93 80 0 6 -17 -6 -38 -26 -33 -33 -62
-47 -62 -32 0 3 12 33 26 66 14 34 23 63 21 65 -2 3 -26 -25 -52 -60 -43 -59
-78 -87 -91 -73 -3 2 6 34 20 71 14 36 21 66 16 66 -6 0 -10 -4 -10 -8 0 -13
-76 -92 -88 -92 -7 0 -9 16 -5 49 6 53 -8 74 -34 48 -17 -17 -21 -51 -9 -84 5
-16 1 -28 -13 -42 -26 -26 -37 -26 -50 -2 -17 30 11 104 59 158 23 27 53 67
66 89 40 68 7 103 -39 42z"/>
</g>
</svg>
